<svg width="50" height="50" viewBox="0 0 50 50" fill="none" xmlns="http://www.w3.org/2000/svg">
<path fill-rule="evenodd" clip-rule="evenodd" d="M40.0039 13.9844H12.9766V10.9961C12.9766 10.4459 12.5307 10 11.9805 10H7.99609C7.44591 10 7 10.4459 7 10.9961C7 11.5463 7.44591 11.9922 7.99609 11.9922H10.9844V17.9688V31.9141V36.8867C10.9844 37.4369 11.4303 37.8828 11.9805 37.8828C12.5307 37.8828 12.9766 37.4369 12.9766 36.8867V35.8984H40.0039C40.5541 35.8984 41 35.4525 41 34.9023V14.9805C41 14.4303 40.5541 13.9844 40.0039 13.9844ZM39.0078 33.9062H12.9766V15.9766H39.0078V33.9062ZM16.0312 30.9922H19.0039C19.5541 30.9922 20 30.5463 20 29.9961C20 29.4459 19.5541 29 19.0039 29H16.0312C15.4811 29 15.0352 29.4459 15.0352 29.9961C15.0352 30.5463 15.4811 30.9922 16.0312 30.9922ZM28.9863 27.9688V25.9785H26.9961C26.4459 25.9785 26 25.5326 26 24.9824C26 24.4322 26.4459 23.9863 26.9961 23.9863H28.9863V21.9961C28.9863 21.4459 29.4322 21 29.9824 21C30.5326 21 30.9785 21.4459 30.9785 21.9961V23.9863H32.9688C33.5189 23.9863 33.9648 24.4322 33.9648 24.9824C33.9648 25.5326 33.5189 25.9785 32.9688 25.9785H30.9785V27.9688C30.9785 28.5189 30.5326 28.9648 29.9824 28.9648C29.4322 28.9648 28.9863 28.5189 28.9863 27.9688ZM16.0312 19.9609C16.5814 19.9609 17.0273 19.515 17.0273 18.9648C17.0273 18.4147 16.5814 17.9688 16.0312 17.9688C15.4811 17.9688 15.0352 18.4147 15.0352 18.9648C15.0352 19.515 15.4811 19.9609 16.0312 19.9609ZM25 25C25 27.7614 27.2386 30 30 30C32.7614 30 35 27.7614 35 25C35 22.2386 32.7614 20 30 20C27.2386 20 25 22.2386 25 25ZM30 18C26.134 18 23 21.134 23 25C23 28.866 26.134 32 30 32C33.866 32 37 28.866 37 25C37 21.134 33.866 18 30 18ZM16.9922 22.9961V25.9688C16.9922 26.5189 16.5463 26.9648 15.9961 26.9648C15.4459 26.9648 15 26.5189 15 25.9688V22.9961C15 22.4459 15.4459 22 15.9961 22C16.5463 22 16.9922 22.4459 16.9922 22.9961Z" fill="#B3B3B3"/>
</svg>
