<svg width="50" height="50" viewBox="0 0 50 50" fill="none" xmlns="http://www.w3.org/2000/svg">
<path d="M20.3301 8H10.0762C8.37997 8 7 9.37997 7 11.0762V35.8223C7 37.5185 8.37997 38.8984 10.0762 38.8984H11.1016V40.9492H10.0762C9.50988 40.9492 9.05078 41.4083 9.05078 41.9746C9.05078 42.5409 9.50988 43 10.0762 43H20.3301C20.8964 43 21.3555 42.5409 21.3555 41.9746C21.3555 41.4083 20.8964 40.9492 20.3301 40.9492H19.3047V38.8984H20.3301C22.0263 38.8984 23.4062 37.5185 23.4062 35.8223V11.0762C23.4062 9.37997 22.0263 8 20.3301 8ZM17.2539 40.9492H13.1523V38.8984H17.2539V40.9492ZM21.3555 35.8223C21.3555 36.3877 20.8955 36.8477 20.3301 36.8477H10.0762C9.51077 36.8477 9.05078 36.3877 9.05078 35.8223V30.627H21.3555V35.8223ZM21.3555 28.5762H9.05078V11.0762C9.05078 10.5108 9.51077 10.0508 10.0762 10.0508H20.3301C20.8955 10.0508 21.3555 10.5108 21.3555 11.0762V28.5762Z" fill="#B3B3B3"/>
<path d="M15.2031 12.1016C13.5069 12.1016 12.127 13.4815 12.127 15.1777C12.127 16.8739 13.5069 18.2539 15.2031 18.2539C16.8993 18.2539 18.2793 16.8739 18.2793 15.1777C18.2793 13.4815 16.8993 12.1016 15.2031 12.1016ZM15.2031 16.2031C14.6377 16.2031 14.1777 15.7431 14.1777 15.1777C14.1777 14.6123 14.6377 14.1523 15.2031 14.1523C15.7685 14.1523 16.2285 14.6123 16.2285 15.1777C16.2285 15.7431 15.7685 16.2031 15.2031 16.2031Z" fill="#B3B3B3"/>
<path d="M15.2031 20.373C13.5069 20.373 12.127 21.753 12.127 23.4492C12.127 25.1454 13.5069 26.5254 15.2031 26.5254C16.8993 26.5254 18.2793 25.1454 18.2793 23.4492C18.2793 21.753 16.8993 20.373 15.2031 20.373ZM15.2031 24.4746C14.6377 24.4746 14.1777 24.0146 14.1777 23.4492C14.1777 22.8838 14.6377 22.4238 15.2031 22.4238C15.7685 22.4238 16.2285 22.8838 16.2285 23.4492C16.2285 24.0146 15.7685 24.4746 15.2031 24.4746Z" fill="#B3B3B3"/>
<path d="M38.9238 8H28.6699C26.9737 8 25.5938 9.37997 25.5938 11.0762V35.8223C25.5938 37.5185 26.9737 38.8984 28.6699 38.8984H29.6953V40.9492H28.6699C28.1036 40.9492 27.6445 41.4083 27.6445 41.9746C27.6445 42.5409 28.1036 43 28.6699 43H38.9238C39.4901 43 39.9492 42.5409 39.9492 41.9746C39.9492 41.4083 39.4901 40.9492 38.9238 40.9492H37.8984V38.8984H38.9238C40.62 38.8984 42 37.5185 42 35.8223V11.0762C42 9.37997 40.62 8 38.9238 8ZM35.8477 40.9492H31.7461V38.8984H35.8477V40.9492ZM39.9492 35.8223C39.9492 36.3877 39.4892 36.8477 38.9238 36.8477H28.6699C28.1045 36.8477 27.6445 36.3877 27.6445 35.8223V30.627H39.9492V35.8223ZM39.9492 28.5762H27.6445V11.0762C27.6445 10.5108 28.1045 10.0508 28.6699 10.0508H38.9238C39.4892 10.0508 39.9492 10.5108 39.9492 11.0762V28.5762Z" fill="#B3B3B3"/>
<path d="M33.7969 12.1016C32.1007 12.1016 30.7207 13.4815 30.7207 15.1777C30.7207 16.8739 32.1007 18.2539 33.7969 18.2539C35.4931 18.2539 36.873 16.8739 36.873 15.1777C36.873 13.4815 35.4931 12.1016 33.7969 12.1016ZM33.7969 16.2031C33.2315 16.2031 32.7715 15.7431 32.7715 15.1777C32.7715 14.6123 33.2315 14.1523 33.7969 14.1523C34.3623 14.1523 34.8223 14.6123 34.8223 15.1777C34.8223 15.7431 34.3623 16.2031 33.7969 16.2031Z" fill="#B3B3B3"/>
<path d="M33.7969 20.373C32.1007 20.373 30.7207 21.753 30.7207 23.4492C30.7207 25.1454 32.1007 26.5254 33.7969 26.5254C35.4931 26.5254 36.873 25.1454 36.873 23.4492C36.873 21.753 35.4931 20.373 33.7969 20.373ZM33.7969 24.4746C33.2315 24.4746 32.7715 24.0146 32.7715 23.4492C32.7715 22.8838 33.2315 22.4238 33.7969 22.4238C34.3623 22.4238 34.8223 22.8838 34.8223 23.4492C34.8223 24.0146 34.3623 24.4746 33.7969 24.4746Z" fill="#B3B3B3"/>
<path d="M30.7207 34.7969C31.287 34.7969 31.7461 34.3378 31.7461 33.7715C31.7461 33.2052 31.287 32.7461 30.7207 32.7461C30.1544 32.7461 29.6953 33.2052 29.6953 33.7715C29.6953 34.3378 30.1544 34.7969 30.7207 34.7969Z" fill="#B3B3B3"/>
<path d="M12.127 34.7969C12.6933 34.7969 13.1523 34.3378 13.1523 33.7715C13.1523 33.2052 12.6933 32.7461 12.127 32.7461C11.5606 32.7461 11.1016 33.2052 11.1016 33.7715C11.1016 34.3378 11.5606 34.7969 12.127 34.7969Z" fill="#B3B3B3"/>
<path d="M18.2793 32.7461H16.2285C15.6622 32.7461 15.2031 33.2052 15.2031 33.7715C15.2031 34.3378 15.6622 34.7969 16.2285 34.7969H18.2793C18.8456 34.7969 19.3047 34.3378 19.3047 33.7715C19.3047 33.2052 18.8456 32.7461 18.2793 32.7461Z" fill="#B3B3B3"/>
<path d="M36.873 32.7461H34.8223C34.256 32.7461 33.7969 33.2052 33.7969 33.7715C33.7969 34.3378 34.256 34.7969 34.8223 34.7969H36.873C37.4393 34.7969 37.8984 34.3378 37.8984 33.7715C37.8984 33.2052 37.4393 32.7461 36.873 32.7461Z" fill="#B3B3B3"/>
</svg>
