<svg width="50" height="50" viewBox="0 0 50 50" fill="none" xmlns="http://www.w3.org/2000/svg">
<path d="M38.5 15H10.5C7.93217 15 7 17.093 7 18.5V32.5C7 35.0678 9.093 36 10.5 36H38.5C41.0678 36 42 33.907 42 32.5V18.5C42 15.9322 39.907 15 38.5 15ZM39.6667 32.486C39.6527 33.025 39.4403 33.6667 38.5 33.6667H10.514C9.975 33.6527 9.33333 33.4403 9.33333 32.5V18.514C9.34733 17.975 9.56083 17.3333 10.5 17.3333H38.486C39.025 17.3473 39.6667 17.5608 39.6667 18.5V32.486ZM16.3333 29H32.6667V31.3333H16.3333V29ZM35 29H37.3333V31.3333H35V29ZM35 24.3333H37.3333V26.6667H35V24.3333ZM30.3333 24.3333H32.6667V26.6667H30.3333V24.3333ZM28 26.6667H25.6667V24.3333H28V26.6667ZM23.3333 26.6667H21V24.3333H23.3333V26.6667ZM18.6667 26.6667H16.3333V24.3333H18.6667V26.6667ZM11.6667 24.3333H14V26.6667H11.6667V24.3333ZM11.6667 29H14V31.3333H11.6667V29ZM35 19.6667H37.3333V22H35V19.6667ZM30.3333 19.6667H32.6667V22H30.3333V19.6667ZM28 22H25.6667V19.6667H28V22ZM23.3333 22H21V19.6667H23.3333V22ZM18.6667 22H16.3333V19.6667H18.6667V22ZM11.6667 19.6667H14V22H11.6667V19.6667Z" fill="#B3B3B3"/>
</svg>
