<svg width="50" height="50" viewBox="0 0 50 50" fill="none" xmlns="http://www.w3.org/2000/svg">
<path d="M26.0437 18.6242V17.5324C26.0437 16.3049 27.0424 15.3063 28.2701 15.3063C30.5962 15.3063 32.4885 13.4139 32.4885 11.0879V9H30.4963V11.0876C30.4963 12.3154 29.4976 13.3138 28.2701 13.3138C25.9441 13.3138 24.0515 15.2064 24.0515 17.5324V18.6242C20.0824 19.1166 17 22.51 17 26.6104V32.9521C17 37.3897 20.6101 41 25.0476 41C29.4852 41 33.0955 37.3899 33.0955 32.9524V26.6104C33.0955 22.51 30.013 19.1166 26.0437 18.6242ZM31.103 26.6104V27.0389H26.0437V20.6374C28.9106 21.114 31.103 23.6107 31.103 26.6104ZM24.0515 20.6374V27.0389H18.9922V26.6104C18.9922 23.6107 21.1849 21.114 24.0515 20.6374ZM25.0476 39.0078C21.7086 39.0078 18.9922 36.2914 18.9922 32.9524V29.0311H31.103V32.9524C31.103 36.2914 28.3866 39.0078 25.0476 39.0078Z" fill="#B3B3B3"/>
</svg>
