<svg width="50" height="50" viewBox="0 0 50 50" fill="none" xmlns="http://www.w3.org/2000/svg">
<path fill-rule="evenodd" clip-rule="evenodd" d="M40.1492 8.50897H9.25078C8.00952 8.50897 7 9.5185 7 10.7598V31.1308C7 32.3721 8.00952 33.3816 9.25078 33.3816H19.0996V38.0402H13.7625C13.0858 38.0402 12.5371 38.5889 12.5371 39.2656C12.5371 39.9424 13.0858 40.491 13.7625 40.491H35.6375C36.3142 40.491 36.8629 39.9424 36.8629 39.2656C36.8629 38.5889 36.3142 38.0402 35.6375 38.0402H30.3004V33.3816H40.1492C41.3905 33.3816 42.4 32.3721 42.4 31.1308V10.7598C42.4 9.5185 41.3905 8.50897 40.1492 8.50897ZM27.8496 33.3816V38.0402H21.5504V33.3816H27.8496ZM39.9523 30.8745L39.9522 30.9308H9.45078V10.9598H39.9492C39.9498 20.2607 39.9513 25.2749 39.9521 27.9772L39.9523 28.7504C39.9526 29.9961 39.9527 30.591 39.9523 30.8745Z" fill="#B3B3B3"/>
</svg>
