<svg height="248px" version="1.1" width="78px" xmlns="http://www.w3.org/2000/svg" style="overflow: hidden; position: absolute; left: 0px; top: 0px;" xmlns:xlink="http://www.w3.org/1999/xlink"><defs style="-webkit-tap-highlight-color: rgba(0, 0, 0, 0);"><filter id="Sk9bbirixw" filterUnits="userSpaceOnUse"><feGaussianBlur stdDeviation="2.5"></feGaussianBlur><feColorMatrix values="0 0 0 0 0 0 0 0 0 0 0 0 0 0 0 0 0 0 0.5 0"></feColorMatrix></filter><linearGradient x1="0" y1="0" x2="1" y2="0" id="linearGradientSk9bbirix13"><stop offset="0%" stop-color="#000000" stop-opacity="0.1"></stop><stop offset="75%" stop-color="#000000" stop-opacity="0.1"></stop><stop offset="100%" stop-color="#ffffff" stop-opacity="0"></stop></linearGradient><filter id="Sk9bbirix19" filterUnits="userSpaceOnUse"><feGaussianBlur stdDeviation="1.5"></feGaussianBlur></filter><mask id="maskSk9bbirix1d"><g fill="#ffffff" style="" class="rhlp-shape"><path d="M 0 10 L 60 10 A 8 8 0 0 1 68 18 L 68 221 A 17 17 0 0 1 34 221 L 0 221 Z" id="pathSk9bbirixy"></path></g></mask><path d="M67.10277777777776,193.71980694444446C67.10277777777776,197.4503625,64.88333333333333,200.00036250000002,61.05833333333332,200.00036250000002C57.280555555555544,200.00036250000002,55.061111111111096,197.54480694444447,55.061111111111096,193.71980694444446C55.061111111111096,189.89480694444447,57.280555555555544,187.43925138888892,61.05833333333332,187.43925138888892C64.88333333333333,187.43925138888892,67.10277777777776,189.94202916666669,67.10277777777776,193.71980694444446C67.10277777777776,193.71980694444446,67.10277777777776,193.71980694444446,67.10277777777776,193.71980694444446M56.61944444444443,193.71980694444446C56.61944444444443,196.60036250000002,58.17777777777776,198.63091805555558,61.05833333333332,198.63091805555558C63.938888888888876,198.63091805555558,65.54444444444442,196.64758472222223,65.54444444444442,193.71980694444446C65.54444444444442,190.8392513888889,63.89166666666665,188.76147361111114,61.05833333333332,188.76147361111114C58.13055555555554,188.76147361111114,56.61944444444443,190.79202916666668,56.61944444444443,193.71980694444446C56.61944444444443,193.71980694444446,56.61944444444443,193.71980694444446,56.61944444444443,193.71980694444446M70.73888888888888,199.7642513888889C70.73888888888888,199.7642513888889,69.36944444444443,199.7642513888889,69.36944444444443,199.7642513888889C69.36944444444443,199.7642513888889,69.36944444444443,190.98091805555558,69.36944444444443,190.98091805555558C69.36944444444443,190.98091805555558,70.73888888888888,190.98091805555558,70.73888888888888,190.98091805555558C70.73888888888888,190.98091805555558,70.73888888888888,194.6170291666667,70.73888888888888,194.6170291666667C70.73888888888888,194.6170291666667,75.31944444444443,194.6170291666667,75.31944444444443,194.6170291666667C75.31944444444443,194.6170291666667,75.31944444444443,190.98091805555558,75.31944444444443,190.98091805555558C75.31944444444443,190.98091805555558,76.68888888888887,190.98091805555558,76.68888888888887,190.98091805555558C76.68888888888887,190.98091805555558,76.68888888888887,199.7642513888889,76.68888888888887,199.7642513888889C76.68888888888887,199.7642513888889,75.31944444444443,199.7642513888889,75.31944444444443,199.7642513888889C75.31944444444443,199.7642513888889,75.31944444444443,195.84480694444446,75.31944444444443,195.84480694444446C75.31944444444443,195.84480694444446,70.73888888888888,195.84480694444446,70.73888888888888,195.84480694444446C70.73888888888888,195.84480694444446,70.73888888888888,199.7642513888889,70.73888888888888,199.7642513888889C70.73888888888888,199.7642513888889,70.73888888888888,199.7642513888889,70.73888888888888,199.7642513888889M78.34166666666664,200.00036250000002C78.34166666666664,200.00036250000002,78.34166666666664,198.8670291666667,78.34166666666664,198.8670291666667C79.66388888888886,198.58369583333337,79.75833333333331,197.16702916666668,79.99444444444443,195.3253625C79.99444444444443,195.3253625,80.56111111111109,190.98091805555558,80.56111111111109,190.98091805555558C80.56111111111109,190.98091805555558,86.69999999999997,190.98091805555558,86.69999999999997,190.98091805555558C86.69999999999997,190.98091805555558,86.69999999999997,199.7642513888889,86.69999999999997,199.7642513888889C86.69999999999997,199.7642513888889,85.33055555555553,199.7642513888889,85.33055555555553,199.7642513888889C85.33055555555553,199.7642513888889,85.33055555555553,192.16147361111112,85.33055555555553,192.16147361111112C85.33055555555553,192.16147361111112,81.78888888888886,192.16147361111112,81.78888888888886,192.16147361111112C81.17499999999998,195.3253625,81.74166666666665,199.7170291666667,78.34166666666664,200.00036250000002C78.34166666666664,200.00036250000002,78.34166666666664,200.00036250000002,78.34166666666664,200.00036250000002M89.34444444444443,192.20869583333337C91.13888888888887,189.9892513888889,96.23888888888888,190.08369583333337,96.23888888888888,193.71980694444446C96.23888888888888,193.71980694444446,96.23888888888888,199.7642513888889,96.23888888888888,199.7642513888889C96.23888888888888,199.7642513888889,94.86944444444444,199.7642513888889,94.86944444444444,199.7642513888889C94.86944444444444,199.7642513888889,94.86944444444444,198.77258472222223,94.86944444444444,198.77258472222223C93.16944444444444,200.8031402777778,88.8722222222222,200.23647361111114,88.8722222222222,197.07258472222225C88.8722222222222,193.90869583333335,93.21666666666665,193.3892513888889,94.86944444444444,195.37258472222223C95.10555555555554,193.29480694444447,94.53888888888888,191.8781402777778,92.64999999999999,191.9253625C91.42222222222222,192.01980694444447,90.66666666666666,192.44480694444445,89.95833333333333,193.1531402777778C89.95833333333333,193.1531402777778,89.34444444444443,192.20869583333337,89.34444444444443,192.20869583333337M90.28888888888888,197.07258472222225C90.28888888888888,199.38647361111114,93.97222222222221,199.5281402777778,94.86944444444444,197.92258472222224C94.86944444444444,197.92258472222224,94.86944444444444,196.26980694444447,94.86944444444444,196.26980694444447C94.01944444444443,194.71147361111113,90.28888888888888,194.75869583333335,90.28888888888888,197.07258472222225C90.28888888888888,197.07258472222225,90.28888888888888,197.07258472222225,90.28888888888888,197.07258472222225M100.25277777777777,199.7642513888889C100.25277777777777,199.7642513888889,98.93055555555554,199.7642513888889,98.93055555555554,199.7642513888889C98.93055555555554,199.7642513888889,98.93055555555554,190.98091805555558,98.93055555555554,190.98091805555558C98.93055555555554,190.98091805555558,100.3,190.98091805555558,100.3,190.98091805555558C100.3,190.98091805555558,100.3,197.68647361111113,100.3,197.68647361111113C100.3,197.68647361111113,104.88055555555555,190.98091805555558,104.88055555555555,190.98091805555558C104.88055555555555,190.98091805555558,106.24999999999999,190.98091805555558,106.24999999999999,190.98091805555558C106.24999999999999,190.98091805555558,106.24999999999999,199.7642513888889,106.24999999999999,199.7642513888889C106.24999999999999,199.7642513888889,104.88055555555555,199.7642513888889,104.88055555555555,199.7642513888889C104.88055555555555,199.7642513888889,104.88055555555555,192.91702916666668,104.88055555555555,192.91702916666668C104.88055555555555,192.91702916666668,100.25277777777777,199.7642513888889,100.25277777777777,199.7642513888889M100.06388888888888,187.81702916666669C100.91388888888888,189.42258472222224,104.21944444444443,189.51702916666667,105.06944444444443,187.81702916666669C105.06944444444443,187.81702916666669,105.77777777777777,188.38369583333335,105.77777777777777,188.38369583333335C104.64444444444443,190.4142513888889,100.5361111111111,190.46147361111113,99.35555555555555,188.38369583333335C99.35555555555555,188.38369583333335,100.06388888888888,187.81702916666669,100.06388888888888,187.81702916666669M110.3111111111111,199.7642513888889C110.3111111111111,199.7642513888889,108.94166666666665,199.7642513888889,108.94166666666665,199.7642513888889C108.94166666666665,199.7642513888889,108.94166666666665,190.98091805555558,108.94166666666665,190.98091805555558C108.94166666666665,190.98091805555558,110.3111111111111,190.98091805555558,110.3111111111111,190.98091805555558C110.3111111111111,190.98091805555558,110.3111111111111,194.6170291666667,110.3111111111111,194.6170291666667C110.3111111111111,194.6170291666667,114.89166666666665,194.6170291666667,114.89166666666665,194.6170291666667C114.89166666666665,194.6170291666667,114.89166666666665,190.98091805555558,114.89166666666665,190.98091805555558C114.89166666666665,190.98091805555558,116.26111111111109,190.98091805555558,116.26111111111109,190.98091805555558C116.26111111111109,190.98091805555558,116.26111111111109,199.7642513888889,116.26111111111109,199.7642513888889C116.26111111111109,199.7642513888889,114.89166666666665,199.7642513888889,114.89166666666665,199.7642513888889C114.89166666666665,199.7642513888889,114.89166666666665,195.84480694444446,114.89166666666665,195.84480694444446C114.89166666666665,195.84480694444446,110.3111111111111,195.84480694444446,110.3111111111111,195.84480694444446C110.3111111111111,195.84480694444446,110.3111111111111,199.7642513888889,110.3111111111111,199.7642513888889C110.3111111111111,199.7642513888889,110.3111111111111,199.7642513888889,110.3111111111111,199.7642513888889M132.6,199.7642513888889C132.6,199.7642513888889,131.23055555555555,199.7642513888889,131.23055555555555,199.7642513888889C131.23055555555555,199.7642513888889,131.23055555555555,192.86980694444446,131.23055555555555,192.86980694444446C131.23055555555555,192.86980694444446,128.35,199.7642513888889,128.35,199.7642513888889C128.35,199.7642513888889,127.87777777777777,199.7642513888889,127.87777777777777,199.7642513888889C127.87777777777777,199.7642513888889,124.99722222222222,192.86980694444446,124.99722222222222,192.86980694444446C124.99722222222222,192.86980694444446,124.99722222222222,199.7642513888889,124.99722222222222,199.7642513888889C124.99722222222222,199.7642513888889,123.62777777777777,199.7642513888889,123.62777777777777,199.7642513888889C123.62777777777777,199.7642513888889,123.62777777777777,190.98091805555558,123.62777777777777,190.98091805555558C123.62777777777777,190.98091805555558,125.42222222222222,190.98091805555558,125.42222222222222,190.98091805555558C125.42222222222222,190.98091805555558,128.11388888888888,197.49758472222223,128.11388888888888,197.49758472222223C128.11388888888888,197.49758472222223,130.75833333333333,190.98091805555558,130.75833333333333,190.98091805555558C130.75833333333333,190.98091805555558,132.6,190.98091805555558,132.6,190.98091805555558C132.6,190.98091805555558,132.6,199.7642513888889,132.6,199.7642513888889C132.6,199.7642513888889,132.6,199.7642513888889,132.6,199.7642513888889M136.23611111111111,195.84480694444446C136.09444444444443,198.9142513888889,140.4388888888889,199.7170291666667,142.09166666666667,197.73369583333334C142.09166666666667,197.73369583333334,142.75277777777777,198.63091805555558,142.75277777777777,198.63091805555558C141.85555555555555,199.5281402777778,140.67499999999998,200.00036250000002,139.25833333333333,200.00036250000002C136.42499999999998,200.00036250000002,134.7722222222222,198.20591805555557,134.7722222222222,195.37258472222223C134.7722222222222,192.68091805555557,136.42499999999998,190.74480694444446,139.11666666666667,190.74480694444446C141.9972222222222,190.74480694444446,143.36666666666667,192.77536250000003,143.31944444444443,195.84480694444446C143.31944444444443,195.84480694444446,136.23611111111111,195.84480694444446,136.23611111111111,195.84480694444446C136.23611111111111,195.84480694444446,136.23611111111111,195.84480694444446,136.23611111111111,195.84480694444446M141.9972222222222,194.80591805555557C142.23333333333332,191.50036250000002,136.94444444444443,190.93369583333336,136.37777777777777,194.0031402777778C136.28333333333333,194.28647361111112,136.23611111111111,194.52258472222223,136.23611111111111,194.80591805555557C136.23611111111111,194.80591805555557,141.9972222222222,194.80591805555557,141.9972222222222,194.80591805555557C141.9972222222222,194.80591805555557,141.9972222222222,194.80591805555557,141.9972222222222,194.80591805555557M146.8611111111111,199.7642513888889C146.8611111111111,199.7642513888889,145.49166666666665,199.7642513888889,145.49166666666665,199.7642513888889C145.49166666666665,199.7642513888889,145.49166666666665,190.98091805555558,145.49166666666665,190.98091805555558C145.49166666666665,190.98091805555558,146.8611111111111,190.98091805555558,146.8611111111111,190.98091805555558C146.8611111111111,190.98091805555558,146.8611111111111,194.6170291666667,146.8611111111111,194.6170291666667C146.8611111111111,194.6170291666667,151.44166666666666,194.6170291666667,151.44166666666666,194.6170291666667C151.44166666666666,194.6170291666667,151.44166666666666,190.98091805555558,151.44166666666666,190.98091805555558C151.44166666666666,190.98091805555558,152.8111111111111,190.98091805555558,152.8111111111111,190.98091805555558C152.8111111111111,190.98091805555558,152.8111111111111,199.7642513888889,152.8111111111111,199.7642513888889C152.8111111111111,199.7642513888889,151.44166666666666,199.7642513888889,151.44166666666666,199.7642513888889C151.44166666666666,199.7642513888889,151.44166666666666,195.84480694444446,151.44166666666666,195.84480694444446C151.44166666666666,195.84480694444446,146.8611111111111,195.84480694444446,146.8611111111111,195.84480694444446C146.8611111111111,195.84480694444446,146.8611111111111,199.7642513888889,146.8611111111111,199.7642513888889C146.8611111111111,199.7642513888889,146.8611111111111,199.7642513888889,146.8611111111111,199.7642513888889M156.44722222222222,195.84480694444446C156.30555555555554,198.9142513888889,160.65,199.7170291666667,162.30277777777778,197.73369583333334C162.30277777777778,197.73369583333334,162.96388888888887,198.63091805555558,162.96388888888887,198.63091805555558C162.06666666666666,199.5281402777778,160.8861111111111,200.00036250000002,159.46944444444443,200.00036250000002C156.6361111111111,200.00036250000002,154.98333333333332,198.20591805555557,154.98333333333332,195.37258472222223C154.98333333333332,192.68091805555557,156.6361111111111,190.74480694444446,159.32777777777778,190.74480694444446C162.20833333333331,190.74480694444446,163.57777777777778,192.77536250000003,163.53055555555554,195.84480694444446C163.53055555555554,195.84480694444446,156.44722222222222,195.84480694444446,156.44722222222222,195.84480694444446C156.44722222222222,195.84480694444446,156.44722222222222,195.84480694444446,156.44722222222222,195.84480694444446M162.20833333333331,194.80591805555557C162.44444444444443,191.50036250000002,157.15555555555554,190.93369583333336,156.58888888888887,194.0031402777778C156.49444444444444,194.28647361111112,156.44722222222222,194.52258472222223,156.44722222222222,194.80591805555557C156.44722222222222,194.80591805555557,162.20833333333331,194.80591805555557,162.20833333333331,194.80591805555557C162.20833333333331,194.80591805555557,162.20833333333331,194.80591805555557,162.20833333333331,194.80591805555557M164.66388888888886,201.98369583333334C164.66388888888886,201.98369583333334,164.66388888888886,198.63091805555558,164.66388888888886,198.63091805555558C166.08055555555555,198.34758472222225,166.12777777777777,196.83647361111113,166.31666666666663,195.3253625C166.31666666666663,195.3253625,166.88333333333333,190.98091805555558,166.88333333333333,190.98091805555558C166.88333333333333,190.98091805555558,173.0222222222222,190.98091805555558,173.0222222222222,190.98091805555558C173.0222222222222,190.98091805555558,173.0222222222222,198.58369583333337,173.0222222222222,198.58369583333337C173.0222222222222,198.58369583333337,174.01388888888886,198.58369583333337,174.01388888888886,198.58369583333337C174.01388888888886,198.58369583333337,174.01388888888886,201.98369583333334,174.01388888888886,201.98369583333334C174.01388888888886,201.98369583333334,172.64444444444442,201.98369583333334,172.64444444444442,201.98369583333334C172.64444444444442,201.98369583333334,172.64444444444442,199.7642513888889,172.64444444444442,199.7642513888889C172.64444444444442,199.7642513888889,166.0333333333333,199.7642513888889,166.0333333333333,199.7642513888889C166.0333333333333,199.7642513888889,166.0333333333333,201.98369583333334,166.0333333333333,201.98369583333334C166.0333333333333,201.98369583333334,164.66388888888886,201.98369583333334,164.66388888888886,201.98369583333334C164.66388888888886,201.98369583333334,164.66388888888886,201.98369583333334,164.66388888888886,201.98369583333334M168.1111111111111,192.16147361111112C167.73333333333332,194.47536250000002,167.82777777777775,197.4031402777778,166.4111111111111,198.58369583333337C166.4111111111111,198.58369583333337,171.65277777777777,198.58369583333337,171.65277777777777,198.58369583333337C171.65277777777777,198.58369583333337,171.65277777777777,192.16147361111112,171.65277777777777,192.16147361111112C171.65277777777777,192.16147361111112,168.1111111111111,192.16147361111112,168.1111111111111,192.16147361111112C168.1111111111111,192.16147361111112,168.1111111111111,192.16147361111112,168.1111111111111,192.16147361111112M176.4694444444444,199.7642513888889C176.4694444444444,199.7642513888889,174.7222222222222,199.7642513888889,174.7222222222222,199.7642513888889C174.7222222222222,199.7642513888889,178.64166666666665,194.94758472222225,178.64166666666665,194.94758472222225C178.64166666666665,194.94758472222225,174.76944444444442,190.98091805555558,174.76944444444442,190.98091805555558C174.76944444444442,190.98091805555558,176.4694444444444,190.98091805555558,176.4694444444444,190.98091805555558C176.4694444444444,190.98091805555558,180.29444444444442,194.8531402777778,180.29444444444442,194.8531402777778C180.29444444444442,194.8531402777778,180.29444444444442,190.98091805555558,180.29444444444442,190.98091805555558C180.29444444444442,190.98091805555558,181.61666666666665,190.98091805555558,181.61666666666665,190.98091805555558C181.61666666666665,190.98091805555558,181.61666666666665,194.8531402777778,181.61666666666665,194.8531402777778C181.61666666666665,194.8531402777778,185.44166666666663,190.98091805555558,185.44166666666663,190.98091805555558C185.44166666666663,190.98091805555558,187.14166666666665,190.98091805555558,187.14166666666665,190.98091805555558C187.14166666666665,190.98091805555558,183.2222222222222,194.94758472222225,183.2222222222222,194.94758472222225C183.2222222222222,194.94758472222225,187.14166666666665,199.7642513888889,187.14166666666665,199.7642513888889C187.14166666666665,199.7642513888889,185.44166666666663,199.7642513888889,185.44166666666663,199.7642513888889C185.44166666666663,199.7642513888889,182.23055555555553,195.84480694444446,182.23055555555553,195.84480694444446C182.23055555555553,195.84480694444446,181.61666666666665,196.45869583333337,181.61666666666665,196.45869583333337C181.61666666666665,196.45869583333337,181.61666666666665,199.7642513888889,181.61666666666665,199.7642513888889C181.61666666666665,199.7642513888889,180.29444444444442,199.7642513888889,180.29444444444442,199.7642513888889C180.29444444444442,199.7642513888889,180.29444444444442,196.45869583333337,180.29444444444442,196.45869583333337C180.29444444444442,196.45869583333337,179.68055555555554,195.84480694444446,179.68055555555554,195.84480694444446C179.68055555555554,195.84480694444446,176.4694444444444,199.7642513888889,176.4694444444444,199.7642513888889M189.69166666666666,195.84480694444446C189.54999999999998,198.9142513888889,193.89444444444445,199.7170291666667,195.54722222222222,197.73369583333334C195.54722222222222,197.73369583333334,196.20833333333331,198.63091805555558,196.20833333333331,198.63091805555558C195.3111111111111,199.5281402777778,194.13055555555553,200.00036250000002,192.71388888888887,200.00036250000002C189.88055555555553,200.00036250000002,188.22777777777776,198.20591805555557,188.22777777777776,195.37258472222223C188.22777777777776,192.68091805555557,189.88055555555553,190.74480694444446,192.57222222222222,190.74480694444446C195.45277777777775,190.74480694444446,196.82222222222222,192.77536250000003,196.77499999999998,195.84480694444446C196.77499999999998,195.84480694444446,189.69166666666666,195.84480694444446,189.69166666666666,195.84480694444446C189.69166666666666,195.84480694444446,189.69166666666666,195.84480694444446,189.69166666666666,195.84480694444446M195.45277777777775,194.80591805555557C195.68888888888887,191.50036250000002,190.39999999999998,190.93369583333336,189.83333333333331,194.0031402777778C189.73888888888888,194.28647361111112,189.69166666666666,194.52258472222223,189.69166666666666,194.80591805555557C189.69166666666666,194.80591805555557,195.45277777777775,194.80591805555557,195.45277777777775,194.80591805555557C195.45277777777775,194.80591805555557,195.45277777777775,194.80591805555557,195.45277777777775,194.80591805555557M207.16388888888886,195.37258472222223C207.16388888888886,198.06425138888892,205.84166666666664,200.00036250000002,203.29166666666663,200.00036250000002C201.9222222222222,200.00036250000002,200.93055555555554,199.29202916666668,200.31666666666663,198.44202916666669C200.31666666666663,198.44202916666669,200.31666666666663,203.1170291666667,200.31666666666663,203.1170291666667C200.31666666666663,203.1170291666667,198.9472222222222,203.1170291666667,198.9472222222222,203.1170291666667C198.9472222222222,203.1170291666667,198.9472222222222,190.98091805555558,198.9472222222222,190.98091805555558C198.9472222222222,190.98091805555558,200.31666666666663,190.98091805555558,200.31666666666663,190.98091805555558C200.31666666666663,190.98091805555558,200.31666666666663,192.3031402777778,200.31666666666663,192.3031402777778C200.8833333333333,191.4531402777778,201.9222222222222,190.74480694444446,203.29166666666663,190.74480694444446C205.88888888888886,190.74480694444446,207.11666666666665,192.63369583333335,207.16388888888886,195.37258472222223C207.16388888888886,195.37258472222223,207.16388888888886,195.37258472222223,207.16388888888886,195.37258472222223M200.31666666666663,197.35591805555558C200.74166666666665,198.06425138888892,201.82777777777775,198.77258472222223,202.91388888888886,198.77258472222223C204.75555555555553,198.6781402777778,205.7472222222222,197.35591805555558,205.7472222222222,195.37258472222223C205.7472222222222,193.43647361111113,204.80277777777775,192.01980694444447,202.91388888888886,191.97258472222225C201.82777777777775,191.97258472222225,200.74166666666665,192.68091805555557,200.31666666666663,193.3892513888889C200.31666666666663,193.3892513888889,200.31666666666663,197.35591805555558,200.31666666666663,197.35591805555558C200.31666666666663,197.35591805555558,200.31666666666663,197.35591805555558,200.31666666666663,197.35591805555558" transform="matrix(0,-1,1,0,-143,245)" id="pathSk9bbirix1f"></path></defs><use xlink:href="#pathSk9bbirixy" filter="url('#Sk9bbirixw')" stroke="none" style="fill-opacity: 0.75;"></use><use xlink:href="#pathSk9bbirixy" fill="#2605ff" stroke="none" style="fill-opacity: 0.9;"></use><use xlink:href="#pathSk9bbirixy" fill="url('#linearGradientSk9bbirix13')" stroke="none" style=""></use><path d="M 0 9 L 60 9 A 8 9 0 0 1 68 18 L 68 238 L 67 238 L 67 18 A 7 6 0 0 0 60 12 L 0 12 Z" stroke="rgba(255,255,255,0.175)" fill="rgba(255,255,255,0.175)" filter="url('#Sk9bbirix19')" mask="url('#maskSk9bbirix1d')" style="stroke-width: 1;" class="rhlp-shape"></path><use xlink:href="#pathSk9bbirix1f" fill="rgba(0,0,0,0.2)" style="stroke-width: 0;"></use><use xlink:href="#pathSk9bbirix1f" fill="#ffffff" transform="matrix(1,0,0,1,0,1)" style="stroke-width: 0;"></use><g stroke="#000000" fill="none" style="stroke-width: 1.1; fill-rule: evenodd; stroke-opacity: 0.2;" class="rhlp-shape"><polyline points="47.6,20,51.8,24.2,47.6,28.4"></polyline><polyline points="51.2,20,55.4,24.2,51.2,28.4"></polyline></g><g stroke="#ffffff" fill="none" style="stroke-width: 1.1; fill-rule: evenodd; stroke-opacity: 1;" class="rhlp-shape"><polyline points="47.6,21,51.8,25.2,47.6,29.4"></polyline><polyline points="51.2,21,55.4,25.2,51.2,29.4"></polyline></g></svg>